HIERARCHY
ROOT Hips
{
  OFFSET 0.000000 95.000000 0.000000
  CHANNELS 6 Xposition Yposition Zposition Zrotation Xrotation Yrotation
  JOINT Spine
  {
    OFFSET 0.000000 10.000000 0.000000
    CHANNELS 3 Zrotation Xrotation Yrotation
    JOINT Spine1
    {
      OFFSET 0.000000 12.000000 0.000000
      CHANNELS 3 Zrotation Xrotation Yrotation
      JOINT Spine2
      {
        OFFSET 0.000000 12.000000 0.000000
        CHANNELS 3 Zrotation Xrotation Yrotation
        JOINT Neck
        {
          OFFSET 0.000000 10.000000 0.000000
          CHANNELS 3 Zrotation Xrotation Yrotation
          JOINT Head
          {
            OFFSET 0.000000 8.000000 0.000000
            CHANNELS 3 Zrotation Xrotation Yrotation
            End Site
            {
              OFFSET 0.000000 10.000000 0.000000
            }
          }
        }
        JOINT LeftShoulder
        {
          OFFSET 6.000000 8.000000 0.000000
          CHANNELS 3 Zrotation Xrotation Yrotation
          JOINT LeftArm
          {
            OFFSET 12.000000 0.000000 0.000000
            CHANNELS 3 Zrotation Xrotation Yrotation
            JOINT LeftForeArm
            {
              OFFSET 24.000000 0.000000 0.000000
              CHANNELS 3 Zrotation Xrotation Yrotation
              JOINT LeftHand
              {
                OFFSET 22.000000 0.000000 0.000000
                CHANNELS 3 Zrotation Xrotation Yrotation
                JOINT LeftHandThumb1
                {
                  OFFSET 1.800000 -1.400000 0.500000
                  CHANNELS 3 Zrotation Xrotation Yrotation
                  JOINT LeftHandThumb2
                  {
                    OFFSET 2.400000 0.000000 0.000000
                    CHANNELS 3 Zrotation Xrotation Yrotation
                    JOINT LeftHandThumb3
                    {
                      OFFSET 1.900000 0.000000 0.000000
                      CHANNELS 3 Zrotation Xrotation Yrotation
                      End Site
                      {
                        OFFSET 1.600000 0.000000 0.000000
                      }
                    }
                  }
                }
                JOINT LeftHandIndex1
                {
                  OFFSET 6.600000 1.200000 0.300000
                  CHANNELS 3 Zrotation Xrotation Yrotation
                  JOINT LeftHandIndex2
                  {
                    OFFSET 2.000000 0.000000 0.000000
                    CHANNELS 3 Zrotation Xrotation Yrotation
                    JOINT LeftHandIndex3
                    {
                      OFFSET 1.200000 0.000000 0.000000
                      CHANNELS 3 Zrotation Xrotation Yrotation
                      End Site
                      {
                        OFFSET 1.000000 0.000000 0.000000
                      }
                    }
                  }
                }
                JOINT LeftHandMiddle1
                {
                  OFFSET 7.200000 0.000000 0.300000
                  CHANNELS 3 Zrotation Xrotation Yrotation
                  JOINT LeftHandMiddle2
                  {
                    OFFSET 3.000000 0.000000 0.000000
                    CHANNELS 3 Zrotation Xrotation Yrotation
                    JOINT LeftHandMiddle3
                    {
                      OFFSET 2.000000 0.000000 0.000000
                      CHANNELS 3 Zrotation Xrotation Yrotation
                      End Site
                      {
                        OFFSET 1.600000 0.000000 0.000000
                      }
                    }
                  }
                }
                JOINT LeftHandRing1
                {
                  OFFSET 7.100000 -1.000000 0.400000
                  CHANNELS 3 Zrotation Xrotation Yrotation
                  JOINT LeftHandRing2
                  {
                    OFFSET 2.600000 0.000000 0.000000
                    CHANNELS 3 Zrotation Xrotation Yrotation
                    JOINT LeftHandRing3
                    {
                      OFFSET 1.600000 0.000000 0.000000
                      CHANNELS 3 Zrotation Xrotation Yrotation
                      End Site
                      {
                        OFFSET 1.300000 0.000000 0.000000
                      }
                    }
                  }
                }
                JOINT LeftHandPinky1
                {
                  OFFSET 6.500000 -2.000000 0.500000
                  CHANNELS 3 Zrotation Xrotation Yrotation
                  JOINT LeftHandPinky2
                  {
                    OFFSET 1.900000 0.000000 0.000000
                    CHANNELS 3 Zrotation Xrotation Yrotation
                    JOINT LeftHandPinky3
                    {
                      OFFSET 1.400000 0.000000 0.000000
                      CHANNELS 3 Zrotation Xrotation Yrotation
                      End Site
                      {
                        OFFSET 1.300000 0.000000 0.000000
                      }
                    }
                  }
                }
              }
            }
          }
        }
        JOINT RightShoulder
        {
          OFFSET -6.000000 8.000000 0.000000
          CHANNELS 3 Zrotation Xrotation Yrotation
          JOINT RightArm
          {
            OFFSET -12.000000 0.000000 0.000000
            CHANNELS 3 Zrotation Xrotation Yrotation
            JOINT RightForeArm
            {
              OFFSET -24.000000 0.000000 0.000000
              CHANNELS 3 Zrotation Xrotation Yrotation
              JOINT RightHand
              {
                OFFSET -22.000000 0.000000 0.000000
                CHANNELS 3 Zrotation Xrotation Yrotation
                JOINT RightHandThumb1
                {
                  OFFSET -1.800000 -1.400000 0.500000
                  CHANNELS 3 Zrotation Xrotation Yrotation
                  JOINT RightHandThumb2
                  {
                    OFFSET -2.400000 0.000000 0.000000
                    CHANNELS 3 Zrotation Xrotation Yrotation
                    JOINT RightHandThumb3
                    {
                      OFFSET -1.900000 0.000000 0.000000
                      CHANNELS 3 Zrotation Xrotation Yrotation
                      End Site
                      {
                        OFFSET -1.600000 0.000000 0.000000
                      }
                    }
                  }
                }
                JOINT RightHandIndex1
                {
                  OFFSET -6.600000 1.200000 0.300000
                  CHANNELS 3 Zrotation Xrotation Yrotation
                  JOINT RightHandIndex2
                  {
                    OFFSET -2.000000 0.000000 0.000000
                    CHANNELS 3 Zrotation Xrotation Yrotation
                    JOINT RightHandIndex3
                    {
                      OFFSET -1.200000 0.000000 0.000000
                      CHANNELS 3 Zrotation Xrotation Yrotation
                      End Site
                      {
                        OFFSET -1.000000 0.000000 0.000000
                      }
                    }
                  }
                }
                JOINT RightHandMiddle1
                {
                  OFFSET -7.200000 0.000000 0.300000
                  CHANNELS 3 Zrotation Xrotation Yrotation
                  JOINT RightHandMiddle2
                  {
                    OFFSET -3.000000 0.000000 0.000000
                    CHANNELS 3 Zrotation Xrotation Yrotation
                    JOINT RightHandMiddle3
                    {
                      OFFSET -2.000000 0.000000 0.000000
                      CHANNELS 3 Zrotation Xrotation Yrotation
                      End Site
                      {
                        OFFSET -1.600000 0.000000 0.000000
                      }
                    }
                  }
                }
                JOINT RightHandRing1
                {
                  OFFSET -7.100000 -1.000000 0.400000
                  CHANNELS 3 Zrotation Xrotation Yrotation
                  JOINT RightHandRing2
                  {
                    OFFSET -2.600000 0.000000 0.000000
                    CHANNELS 3 Zrotation Xrotation Yrotation
                    JOINT RightHandRing3
                    {
                      OFFSET -1.600000 0.000000 0.000000
                      CHANNELS 3 Zrotation Xrotation Yrotation
                      End Site
                      {
                        OFFSET -1.300000 0.000000 0.000000
                      }
                    }
                  }
                }
                JOINT RightHandPinky1
                {
                  OFFSET -6.500000 -2.000000 0.500000
                  CHANNELS 3 Zrotation Xrotation Yrotation
                  JOINT RightHandPinky2
                  {
                    OFFSET -1.900000 0.000000 0.000000
                    CHANNELS 3 Zrotation Xrotation Yrotation
                    JOINT RightHandPinky3
                    {
                      OFFSET -1.400000 0.000000 0.000000
                      CHANNELS 3 Zrotation Xrotation Yrotation
                      End Site
                      {
                        OFFSET -1.300000 0.000000 0.000000
                      }
                    }
                  }
                }
              }
            }
          }
        }
      }
    }
  }
  JOINT LeftUpLeg
  {
    OFFSET 10.000000 -5.000000 0.000000
    CHANNELS 3 Zrotation Xrotation Yrotation
    JOINT LeftLeg
    {
      OFFSET 0.000000 -42.000000 0.000000
      CHANNELS 3 Zrotation Xrotation Yrotation
      JOINT LeftFoot
      {
        OFFSET 0.000000 -42.000000 4.000000
        CHANNELS 3 Zrotation Xrotation Yrotation
        End Site
        {
          OFFSET 0.000000 0.000000 12.000000
        }
      }
    }
  }
  JOINT RightUpLeg
  {
    OFFSET -10.000000 -5.000000 0.000000
    CHANNELS 3 Zrotation Xrotation Yrotation
    JOINT RightLeg
    {
      OFFSET 0.000000 -42.000000 0.000000
      CHANNELS 3 Zrotation Xrotation Yrotation
      JOINT RightFoot
      {
        OFFSET 0.000000 -42.000000 4.000000
        CHANNELS 3 Zrotation Xrotation Yrotation
        End Site
        {
          OFFSET 0.000000 0.000000 12.000000
        }
      }
    }
  }
}
MOTION
Frames: 9
Frame Time: 0.040000
0.0705 0.1748 -0.0697 -5.2312 12.6878 13.3335 5.2822 1.2478 -13.2542 0.0000 0.0000 0.0000 0.0000 0.0000 0.0000 5.7015 50.2680 4.3651 0.0000 0.0000 0.0000 0.0000 0.0000 0.0000 -79.9118 2.2598 17.9335 -10.5976 10.5364 -11.5221 -174.4404 17.1155 174.9826 48.3590 -9.4102 5.1180 -46.9077 -4.2739 -9.8313 -0.2520 -0.0062 -2.8259 -2.6212 0.2674 -0.9403 17.5549 1.2021 -7.7735 0.1238 0.0020 -1.8084 11.0962 -0.0830 -3.9179 20.8358 3.3671 -18.1655 16.9368 1.5864 -10.6250 17.1603 -0.9076 -4.5015 22.8424 5.1079 -24.9013 32.4400 5.4919 -18.7246 21.3261 -2.0403 -4.2261 8.3976 1.8715 -25.0857 38.6546 9.6358 -27.0259 0.0000 0.0000 0.0000 83.5374 -22.4012 10.8414 55.6910 46.3975 116.5145 23.3424 38.5371 41.1992 -64.5340 -13.1330 -3.7456 87.0513 -5.5912 5.8861 10.0610 0.2796 -3.1755 1.1782 -0.8672 -5.3626 -6.7501 0.2462 4.1724 -5.3571 0.0738 1.5779 -11.3609 -0.7763 -3.0204 -3.2226 0.1529 5.4297 -1.6778 0.0373 2.5467 0.2733 0.1731 -1.0997 -1.5965 0.1751 12.5150 0.4414 -0.0124 3.2225 -5.7328 -0.0619 -1.4694 4.0077 -0.6211 17.6122 -1.4862 0.0421 3.2444 7.1897 -14.0651 -15.1208 0.0000 0.0000 0.0000 0.0000 0.0000 0.0000 15.5466 -5.6004 -13.5491 0.0000 0.0000 0.0000 0.0000 0.0000 0.0000
0.0613 0.1875 -0.0869 -5.0606 12.9801 13.0119 4.7052 1.0882 -12.9935 0.0000 0.0000 0.0000 0.0000 0.0000 0.0000 6.6870 50.1803 5.0961 0.0000 0.0000 0.0000 0.0000 0.0000 0.0000 -80.0082 0.9418 16.6379 -9.7537 9.8269 -10.7252 -173.3497 12.8667 176.3783 48.3216 -9.1164 6.3643 -48.0906 -4.2921 -9.6018 -0.7783 -0.0166 -2.4498 -5.0214 0.1362 0.6609 17.4105 1.1337 -7.3944 2.1727 0.0383 -2.0215 8.7181 -0.2279 -1.7830 26.2060 4.3903 -18.7031 20.7590 2.2738 -12.3674 15.9879 -0.8890 -1.8089 27.5961 5.6935 -22.8927 28.3910 3.9635 -15.5784 21.6145 -1.7697 -1.6530 12.0509 2.4052 -22.4963 39.0039 7.8372 -21.8933 0.0000 0.0000 0.0000 80.6858 -26.1149 15.4631 60.9569 69.9988 138.2667 -8.5393 10.8596 43.2511 -58.0037 -11.6597 -4.6156 91.8967 -8.6206 8.3408 12.3126 0.2757 -2.5559 4.6101 -0.6959 -6.4136 -7.2747 0.2615 4.1126 -5.8462 0.0773 1.5142 -9.6149 -0.8267 -5.0334 -2.0296 0.0941 5.3071 -1.0310 0.0293 3.2538 1.6039 0.5801 -3.1486 -1.7245 0.1962 12.9777 0.3600 -0.0153 4.8705 -4.8722 0.5454 -3.4924 3.4242 -0.5730 18.9942 -2.2909 0.0849 4.2465 7.3894 -13.1260 -14.6239 0.0000 0.0000 0.0000 0.0000 0.0000 0.0000 15.4136 -5.6510 -13.1795 0.0000 0.0000 0.0000 0.0000 0.0000 0.0000
0.0564 0.1934 -0.1067 -4.9725 11.3931 12.7466 4.2458 0.9643 -12.7726 0.0000 0.0000 0.0000 0.0000 0.0000 0.0000 7.8427 51.3790 5.7784 0.0000 0.0000 0.0000 0.0000 0.0000 0.0000 -80.0019 1.8463 15.7647 -8.5441 9.6742 -10.6872 -172.5431 11.9248 176.8174 48.1635 -9.1303 6.1375 -48.5835 -4.2788 -9.4629 0.5949 0.0138 -2.6631 -6.4499 0.1571 1.0751 17.7579 1.2654 -8.0869 1.9033 0.0456 -2.7457 6.5306 -0.1543 -2.0683 27.1102 5.5805 -22.8565 20.6471 3.0890 -16.8400 13.9919 -0.8171 -2.2005 28.2473 7.5726 -29.4717 28.9201 5.8536 -22.4285 20.2852 -1.7508 -2.1185 13.0176 3.0884 -26.5881 37.5744 9.5483 -27.5879 0.0000 0.0000 0.0000 78.8268 -27.6366 19.7388 163.3954 76.2347 254.7213 -44.3169 -18.8791 47.2769 -47.6025 -9.0134 -6.0596 89.0704 -14.5269 14.7620 15.4472 0.0022 -0.0166 8.8682 -0.3396 -7.1576 -8.9887 0.2858 3.6344 -4.3553 0.0518 1.3629 -6.1956 -0.6485 -7.1673 -0.2391 0.0100 4.7772 -0.8526 0.0253 3.4052 -3.7140 0.5758 -7.2371 1.6364 -0.1654 11.5400 -1.2966 0.0624 5.5086 -10.6049 0.7661 -7.4460 6.5104 -0.9963 17.3826 -2.8971 0.1151 4.5487 7.0048 -12.0936 -14.1708 0.0000 0.0000 0.0000 0.0000 0.0000 0.0000 15.3593 -2.4135 -12.3644 0.0000 0.0000 0.0000 0.0000 0.0000 0.0000
0.0572 0.2062 -0.1030 -4.7927 12.4431 12.3497 4.3959 0.9640 -12.3446 0.0000 0.0000 0.0000 0.0000 0.0000 0.0000 8.2278 49.3836 5.7496 0.0000 0.0000 0.0000 0.0000 0.0000 0.0000 -80.8188 -0.8772 13.5675 -8.2224 9.2446 -10.3497 -172.7670 7.8146 176.4735 48.8794 -9.0551 7.2400 -49.5425 -4.6440 -10.0434 0.8826 0.0143 -1.8510 -6.3159 0.1447 1.1157 17.9524 0.9709 -6.1408 2.2939 0.0326 -1.6263 6.9270 -0.2404 -0.8006 29.1320 3.8826 -14.8638 21.0113 1.4967 -8.0582 13.7683 -0.7884 -1.1371 33.8364 6.3153 -20.5600 36.8563 4.5481 -13.5927 20.1958 -1.6471 -1.3051 17.4388 3.3233 -21.4218 49.6674 9.2884 -19.9121 0.0000 0.0000 0.0000 74.6293 -31.6697 25.3532 193.2347 54.4102 292.7925 -74.6315 -44.0013 58.8548 -41.0864 -7.1879 -6.8213 75.5054 -16.0208 20.6002 16.4726 -0.4599 3.1766 10.3196 -0.2167 -7.5285 -10.4488 0.2759 3.0172 -2.0345 0.0218 1.2284 -3.8338 -0.4465 -8.5080 0.7953 -0.0271 3.9045 -1.2835 0.0307 2.7370 -9.6170 0.0463 -10.3683 5.3654 -0.3768 8.0287 -2.9224 0.1027 4.0242 -16.2976 0.4212 -10.3003 10.5285 -1.1469 12.3994 -2.6288 0.0899 3.9180 7.4254 -11.5451 -13.6609 0.0000 0.0000 0.0000 0.0000 0.0000 0.0000 15.6886 -3.2893 -11.9929 0.0000 0.0000 0.0000 0.0000 0.0000 0.0000
0.0629 0.1964 -0.1092 -5.1281 11.1591 12.0408 3.8046 0.8193 -12.1344 0.0000 0.0000 0.0000 0.0000 0.0000 0.0000 11.5217 49.7901 7.7690 0.0000 0.0000 0.0000 0.0000 0.0000 0.0000 -80.3101 -0.2450 12.7895 -6.8459 7.8157 -8.5466 -349.2557 23.5774 186.1089 52.7612 -8.0039 17.6885 -36.2460 -1.4068 -4.2965 -4.8580 0.2726 6.4185 -15.8370 0.6346 1.7379 6.1151 0.0506 -0.9466 -0.0043 -0.0000 -0.4410 -7.5013 0.2618 -0.7799 -3.6319 -0.0196 -0.6193 -0.2237 0.0016 0.7943 1.0523 0.0445 0.7885 -9.9597 -0.3512 -4.0288 -0.9511 -0.0018 -0.2201 12.1276 -0.1244 4.0101 -15.4060 -1.1386 -8.4028 -0.8870 -0.0058 -0.7523 0.0000 0.0000 0.0000 73.0095 -32.0991 28.0726 199.8960 42.3563 301.6546 -100.4081 -55.6372 76.6466 -39.1039 -6.3904 -7.7019 62.4041 -11.8501 19.4464 13.0648 -0.3549 3.0988 9.4897 -0.3387 -7.8320 -10.8912 0.2579 2.7052 -0.5393 0.0051 1.0895 -3.4383 -0.4163 -9.0328 1.1002 -0.0287 2.9898 -1.6062 0.0275 1.9617 -11.8276 -0.2518 -11.0917 6.9785 -0.3081 5.0496 -3.1000 0.0763 2.8205 -18.1985 0.2021 -10.9628 12.7594 -0.9275 8.2811 -1.9459 0.0556 3.2705 7.8090 -10.1048 -13.2238 0.0000 0.0000 0.0000 0.0000 0.0000 0.0000 15.8838 -2.1472 -11.5968 0.0000 0.0000 0.0000 0.0000 0.0000 0.0000
0.0643 0.2160 -0.1201 -5.0986 10.5486 12.6528 3.1026 0.7062 -12.8107 0.0000 0.0000 0.0000 0.0000 0.0000 0.0000 15.3009 50.1079 10.1038 0.0000 0.0000 0.0000 0.0000 0.0000 0.0000 -79.4258 -0.8438 11.3389 -6.8709 7.1417 -7.8492 -172.6215 5.7012 175.6781 48.9750 -9.2261 6.5825 -49.8686 -4.7078 -10.1057 -0.6472 -0.0064 -1.1337 -7.4910 0.2807 0.4896 17.8609 1.0082 -6.4093 1.7346 0.0243 -1.6067 5.2275 -0.1154 -2.2451 33.8368 6.0935 -19.8508 28.5570 3.5985 -14.0730 12.4723 -0.7711 -2.4845 37.9418 9.4137 -26.9389 44.1045 8.5051 -20.8029 18.7085 -1.6619 -2.0738 21.2451 4.8484 -25.4402 52.0941 12.3687 -25.0012 0.0000 0.0000 0.0000 67.6455 -33.5817 33.5824 207.0730 38.1622 304.7348 -123.3419 -57.4873 94.9905 -39.0456 -6.0450 -8.7142 55.1612 -8.5145 16.2211 9.3682 -0.1448 1.7667 7.9733 -0.5124 -7.8387 -10.8666 0.2520 2.6491 0.2189 -0.0016 0.8214 -4.1528 -0.5018 -9.0026 1.0405 -0.0200 2.2064 -1.7321 0.0227 1.5035 -12.8647 -0.4250 -10.5849 7.4088 -0.2023 3.1245 -2.7572 0.0569 2.3625 -18.9705 0.0331 -10.6886 13.7120 -0.6997 5.8142 -1.2708 0.0316 2.8485 7.7978 -8.9508 -13.6898 0.0000 0.0000 0.0000 0.0000 0.0000 0.0000 16.7427 -2.3296 -12.2562 0.0000 0.0000 0.0000 0.0000 0.0000 0.0000
0.0678 0.2240 -0.1350 -4.8385 9.4837 13.0627 2.2874 0.5393 -13.2584 0.0000 0.0000 0.0000 0.0000 0.0000 0.0000 19.4165 50.6518 12.5207 0.0000 0.0000 0.0000 0.0000 0.0000 0.0000 -78.9515 -0.9158 9.8629 -6.6459 5.7958 -6.2602 -172.7501 6.6857 175.6357 48.7834 -9.2555 6.2439 -48.7296 -4.6676 -10.2844 -1.5134 -0.0137 -1.0371 -6.9671 0.2288 0.7096 19.0620 1.2270 -7.2983 1.3338 0.0315 -2.7016 5.7416 -0.1461 -1.8589 37.3913 7.9465 -23.1984 33.8011 6.6559 -21.6689 12.5541 -0.7553 -1.8652 36.6312 9.8160 -29.0854 41.9632 9.8496 -25.3265 18.3473 -1.6061 -1.8086 18.3935 4.4151 -26.7843 49.0298 13.8424 -29.8107 0.0000 0.0000 0.0000 61.2320 -34.3560 40.1750 216.0091 37.8669 306.3620 -123.6917 -57.2347 99.1322 -38.2588 -5.4624 -9.7911 58.5279 -7.6354 13.5824 23.0519 -0.0369 0.1809 0.6767 -1.9166 -11.0010 -10.5147 0.1481 1.6095 -0.3895 0.0011 0.3286 -5.7245 -0.6457 -8.0895 1.4865 -0.0101 0.7808 -2.2706 0.0117 0.5896 -13.0266 -0.4968 -8.7708 5.1490 -0.1033 2.2973 -3.7477 0.0255 0.7798 -17.1022 -0.3009 -6.4252 12.7184 -0.7739 6.9361 -3.5413 0.0050 0.1633 6.7188 -7.7794 -13.9163 0.0000 0.0000 0.0000 0.0000 0.0000 0.0000 16.6568 -1.7689 -12.6297 0.0000 0.0000 0.0000 0.0000 0.0000 0.0000
0.0663 0.2368 -0.1355 -4.8270 8.7909 13.1309 1.8808 0.4464 -13.3461 0.0000 0.0000 0.0000 0.0000 0.0000 0.0000 22.6909 50.7710 14.3655 0.0000 0.0000 0.0000 0.0000 0.0000 0.0000 -78.7425 -1.7699 7.8073 -6.1985 4.5874 -4.9381 -173.0173 3.4052 173.9901 51.0447 -9.7740 6.3627 -50.2776 -5.0178 -10.6689 0.9527 0.0055 -0.6596 -6.1903 0.1853 0.7404 18.5057 0.8222 -5.0435 1.7414 0.0319 -2.1001 7.7827 -0.2631 -0.9055 29.2707 3.1748 -12.1151 30.5082 2.1372 -7.8255 14.1419 -0.8136 -1.6493 32.5235 5.6793 -19.3013 49.3389 6.6247 -14.3638 20.6604 -1.8111 -2.4647 15.9857 3.0295 -21.3309 53.3058 9.8254 -19.4354 0.0000 0.0000 0.0000 55.4623 -35.3125 47.0512 221.4342 35.2107 305.7031 -120.6232 -56.8420 99.7526 -39.4342 -5.6604 -10.2369 59.0951 -7.8398 13.7848 26.4792 -0.3467 1.4733 3.0439 -1.5781 -11.0272 -17.7878 -0.4095 -2.6165 -2.6361 -0.0042 -0.1809 -4.9842 -0.5599 -8.0390 -4.4750 -0.1009 -2.5813 -4.0059 -0.0106 -0.3030 -13.6802 -0.5823 -8.8260 -0.0502 -0.0000 -0.0777 -4.9072 -0.0174 -0.4067 -18.4538 -0.5455 -5.9246 7.1326 -0.3118 4.9997 -4.1104 -0.0305 -0.8510 6.4476 -7.5798 -13.9588 0.0000 0.0000 0.0000 0.0000 0.0000 0.0000 16.3983 -1.4224 -12.7086 0.0000 0.0000 0.0000 0.0000 0.0000 0.0000
0.0674 0.2409 -0.1355 -4.5497 8.6617 13.4308 1.7079 0.4145 -13.6361 0.0000 0.0000 0.0000 0.0000 0.0000 0.0000 22.5101 51.1049 14.2980 0.0000 0.0000 0.0000 0.0000 0.0000 0.0000 -78.8753 -2.5064 6.6492 -5.8797 4.1375 -4.4911 -173.0668 8.2146 176.6567 51.2096 -9.9166 5.8510 -50.5699 -4.5861 -9.6907 0.0059 0.0001 -1.1683 -6.0660 0.1801 0.7311 18.8443 1.0269 -6.1825 3.5822 0.0890 -2.8442 7.6850 -0.1968 -1.8422 33.6044 5.4455 -17.9005 41.1576 6.6234 -17.5230 14.3066 -0.8302 -2.3181 34.3080 7.6502 -24.4435 50.0578 10.2503 -21.7467 19.8512 -1.7649 -2.4144 16.1444 3.6339 -25.2156 52.3435 13.5427 -27.1651 0.0000 0.0000 0.0000 52.1658 -36.1271 51.6326 222.6102 33.5283 303.5564 -117.3329 -56.3868 99.6128 -40.7787 -5.8920 -10.7625 59.8982 -7.9360 13.7298 30.7504 -0.7617 2.7695 8.1830 -0.7114 -9.8627 -29.0648 -2.6435 -10.1728 -5.9266 -0.0457 -0.8822 -2.2796 -0.2337 -6.9315 -13.9940 -1.0174 -8.2752 -6.3926 -0.0856 -1.5319 -13.2508 -0.5454 -7.9935 -8.3816 -0.2788 -3.8031 -6.3654 -0.1155 -2.0767 -19.1509 -0.8214 -4.4974 -1.6654 0.0336 2.3083 -4.6990 -0.0948 -2.3111 6.2568 -8.4193 -14.3141 0.0000 0.0000 0.0000 0.0000 0.0000 0.0000 16.3626 -1.6381 -13.0381 0.0000 0.0000 0.0000 0.0000 0.0000 0.0000
